<svg viewBox="0 0 64 64" xmlns="http://www.w3.org/2000/svg">
<g transform="translate(32,32) scale(1.12) translate(-32,-32)" fill="#0a0a0a" opacity="0.38">
  <circle cx="32" cy="32" r="13"/>
  <rect x="30.5" y="5" width="3" height="8" rx="1.5" transform="rotate(0 32 32)"/>
  <rect x="30.5" y="5" width="3" height="8" rx="1.5" transform="rotate(45 32 32)"/>
  <rect x="30.5" y="5" width="3" height="8" rx="1.5" transform="rotate(90 32 32)"/>
  <rect x="30.5" y="5" width="3" height="8" rx="1.5" transform="rotate(135 32 32)"/>
  <rect x="30.5" y="5" width="3" height="8" rx="1.5" transform="rotate(180 32 32)"/>
  <rect x="30.5" y="5" width="3" height="8" rx="1.5" transform="rotate(225 32 32)"/>
  <rect x="30.5" y="5" width="3" height="8" rx="1.5" transform="rotate(270 32 32)"/>
  <rect x="30.5" y="5" width="3" height="8" rx="1.5" transform="rotate(315 32 32)"/>
</g>
<g fill="#f2f2f2">
  <circle cx="32" cy="32" r="13"/>
  <rect x="30.5" y="5" width="3" height="8" rx="1.5" transform="rotate(0 32 32)"/>
  <rect x="30.5" y="5" width="3" height="8" rx="1.5" transform="rotate(45 32 32)"/>
  <rect x="30.5" y="5" width="3" height="8" rx="1.5" transform="rotate(90 32 32)"/>
  <rect x="30.5" y="5" width="3" height="8" rx="1.5" transform="rotate(135 32 32)"/>
  <rect x="30.5" y="5" width="3" height="8" rx="1.5" transform="rotate(180 32 32)"/>
  <rect x="30.5" y="5" width="3" height="8" rx="1.5" transform="rotate(225 32 32)"/>
  <rect x="30.5" y="5" width="3" height="8" rx="1.5" transform="rotate(270 32 32)"/>
  <rect x="30.5" y="5" width="3" height="8" rx="1.5" transform="rotate(315 32 32)"/>
</g>
</svg>
