<svg viewBox="0 0 64 64" xmlns="http://www.w3.org/2000/svg">
<g transform="translate(32,32) scale(1.12) translate(-32,-32)" fill="#0a0a0a" opacity="0.38">
  <circle cx="21" cy="36" r="9"/>
  <circle cx="33" cy="30" r="12"/>
  <circle cx="45" cy="36" r="9"/>
  <rect x="18" y="36" width="30" height="13" rx="6.5"/>
  <rect x="14" y="44" width="36" height="3" rx="1.5"/>
  <rect x="18" y="50" width="28" height="3" rx="1.5"/>
  <rect x="12" y="56" width="40" height="3" rx="1.5"/>
</g>
<g fill="#f2f2f2">
  <circle cx="21" cy="36" r="9"/>
  <circle cx="33" cy="30" r="12"/>
  <circle cx="45" cy="36" r="9"/>
  <rect x="18" y="36" width="30" height="13" rx="6.5"/>
  <rect x="14" y="44" width="36" height="3" rx="1.5"/>
  <rect x="18" y="50" width="28" height="3" rx="1.5"/>
  <rect x="12" y="56" width="40" height="3" rx="1.5"/>
</g>
</svg>
