<svg viewBox="0 0 64 64" xmlns="http://www.w3.org/2000/svg">
<g transform="translate(32,32) scale(1.12) translate(-32,-32)" fill="#0a0a0a" opacity="0.38">
  <circle cx="23" cy="23" r="10"/>
  <rect x="21.75" y="2" width="2.5" height="6" rx="1.25" transform="rotate(200 23 23)"/>
  <rect x="21.75" y="2" width="2.5" height="6" rx="1.25" transform="rotate(235 23 23)"/>
  <rect x="21.75" y="2" width="2.5" height="6" rx="1.25" transform="rotate(270 23 23)"/>
  <rect x="21.75" y="2" width="2.5" height="6" rx="1.25" transform="rotate(305 23 23)"/>
  <rect x="21.75" y="2" width="2.5" height="6" rx="1.25" transform="rotate(340 23 23)"/>
  <circle cx="30" cy="40" r="8"/>
  <circle cx="41" cy="35" r="10"/>
  <circle cx="50" cy="40" r="7.5"/>
  <rect x="27" y="40" width="28" height="12" rx="6"/>
</g>
<g fill="#f2f2f2">
  <circle cx="23" cy="23" r="10"/>
  <rect x="21.75" y="2" width="2.5" height="6" rx="1.25" transform="rotate(200 23 23)"/>
  <rect x="21.75" y="2" width="2.5" height="6" rx="1.25" transform="rotate(235 23 23)"/>
  <rect x="21.75" y="2" width="2.5" height="6" rx="1.25" transform="rotate(270 23 23)"/>
  <rect x="21.75" y="2" width="2.5" height="6" rx="1.25" transform="rotate(305 23 23)"/>
  <rect x="21.75" y="2" width="2.5" height="6" rx="1.25" transform="rotate(340 23 23)"/>
  <circle cx="30" cy="40" r="8"/>
  <circle cx="41" cy="35" r="10"/>
  <circle cx="50" cy="40" r="7.5"/>
  <rect x="27" y="40" width="28" height="12" rx="6"/>
</g>
</svg>
