<svg viewBox="0 0 64 64" xmlns="http://www.w3.org/2000/svg">
<g transform="translate(32,32) scale(1.12) translate(-32,-32)" fill="#0a0a0a" opacity="0.38">
  <circle cx="21" cy="36" r="9"/>
  <circle cx="33" cy="30" r="12"/>
  <circle cx="45" cy="36" r="9"/>
  <rect x="18" y="36" width="30" height="13" rx="6.5"/>
  <rect x="19.0" y="45.5" width="2" height="9.0" rx="1.0" transform="rotate(0 20 50)"/>
  <rect x="19.0" y="45.5" width="2" height="9.0" rx="1.0" transform="rotate(60 20 50)"/>
  <rect x="19.0" y="45.5" width="2" height="9.0" rx="1.0" transform="rotate(120 20 50)"/>
  <rect x="31.0" y="48.5" width="2" height="9.0" rx="1.0" transform="rotate(0 32 53)"/>
  <rect x="31.0" y="48.5" width="2" height="9.0" rx="1.0" transform="rotate(60 32 53)"/>
  <rect x="31.0" y="48.5" width="2" height="9.0" rx="1.0" transform="rotate(120 32 53)"/>
  <rect x="43.0" y="45.5" width="2" height="9.0" rx="1.0" transform="rotate(0 44 50)"/>
  <rect x="43.0" y="45.5" width="2" height="9.0" rx="1.0" transform="rotate(60 44 50)"/>
  <rect x="43.0" y="45.5" width="2" height="9.0" rx="1.0" transform="rotate(120 44 50)"/>
</g>
<g fill="#f2f2f2">
  <circle cx="21" cy="36" r="9"/>
  <circle cx="33" cy="30" r="12"/>
  <circle cx="45" cy="36" r="9"/>
  <rect x="18" y="36" width="30" height="13" rx="6.5"/>
  <rect x="19.0" y="45.5" width="2" height="9.0" rx="1.0" transform="rotate(0 20 50)"/>
  <rect x="19.0" y="45.5" width="2" height="9.0" rx="1.0" transform="rotate(60 20 50)"/>
  <rect x="19.0" y="45.5" width="2" height="9.0" rx="1.0" transform="rotate(120 20 50)"/>
  <rect x="31.0" y="48.5" width="2" height="9.0" rx="1.0" transform="rotate(0 32 53)"/>
  <rect x="31.0" y="48.5" width="2" height="9.0" rx="1.0" transform="rotate(60 32 53)"/>
  <rect x="31.0" y="48.5" width="2" height="9.0" rx="1.0" transform="rotate(120 32 53)"/>
  <rect x="43.0" y="45.5" width="2" height="9.0" rx="1.0" transform="rotate(0 44 50)"/>
  <rect x="43.0" y="45.5" width="2" height="9.0" rx="1.0" transform="rotate(60 44 50)"/>
  <rect x="43.0" y="45.5" width="2" height="9.0" rx="1.0" transform="rotate(120 44 50)"/>
</g>
</svg>
